<?xml version="1.0" encoding="utf-8"?>
<!-- Generator: Adobe Illustrator 25.0.1, SVG Export Plug-In . SVG Version: 6.00 Build 0)  -->
<svg version="1.1" id="Capa_1" xmlns="http://www.w3.org/2000/svg" xmlns:xlink="http://www.w3.org/1999/xlink" x="0px" y="0px"
	 viewBox="0 0 512 512" style="enable-background:new 0 0 512 512;" xml:space="preserve">
<style type="text/css">
	.st0{fill:#FFFFFF;}
</style>
<g id="XMLID_1222_">
	<g id="XMLID_352_">
		<path id="XMLID_1143_" class="st0" d="M339.18,160.29c0.98,0,1.98-0.15,2.96-0.45c51.51-15.96,105.01-21.76,159.02-17.23
			c5.51,0.45,10.34-3.63,10.8-9.13c0.46-5.5-3.63-10.34-9.13-10.8c-56.58-4.73-112.64,1.34-166.61,18.06
			c-5.27,1.63-8.23,7.24-6.59,12.51C330.96,157.54,334.91,160.29,339.18,160.29L339.18,160.29z"/>
		<path id="XMLID_1229_" class="st0" d="M503.09,267.8c-49.96-5.48-99.84-2.14-148.25,9.95c-43.49,10.86-84.71,28.49-122.68,52.43
			c-4.99-5.38-12.05-8.55-19.91-8.55h-26.52c85.52-78.3,199.05-115.65,315.18-102.9c5.48,0.6,10.43-3.36,11.03-8.85
			c0.6-5.49-3.36-10.43-8.85-11.03c-65.7-7.21-130.29,0.67-191.96,23.44c-56.22,20.75-108.24,53.89-150.98,96.1l-10.71-33.05
			c31.92-36.58,69.58-67.16,112.06-90.9c4.82-2.69,6.54-8.79,3.85-13.61c-2.69-4.82-8.78-6.54-13.61-3.85
			c-41.59,23.25-78.77,52.75-110.75,87.79c-5.02-6.41-12.7-10.25-21.36-10.25c-0.01,0-0.02,0-0.03,0
			c-12.06,0.01-22.23,7.44-25.93,18.92l-15.5,48.19H27.32c-12.05,0-22.24,7.41-25.94,18.88c-3.71,11.47,0.21,23.44,9.98,30.49
			l41.25,29.78l-15.77,48.41c-3.73,11.45,0.15,23.43,9.9,30.51c4.87,3.54,10.44,5.3,16.02,5.3c5.59,0,11.18-1.78,16.06-5.33
			l41.16-29.99l40.95,29.76c9.75,7.09,22.34,7.08,32.09-0.02c9.74-7.1,13.61-19.08,9.85-30.54l-15.77-48.08l41.16-29.84
			c7.28-5.28,11.29-13.29,11.31-21.78c77.29-49.72,169.84-71.56,261.35-61.51c5.48,0.6,10.43-3.36,11.03-8.85
			C512.54,273.34,508.58,268.4,503.09,267.8L503.09,267.8z M216.51,354.78l-47.06,34.12c-3.52,2.55-4.99,7.08-3.63,11.21
			l18.05,55.01c1.53,4.66-1.62,7.41-2.62,8.14c-1,0.73-4.58,2.89-8.55,0.01l-46.83-34.04c-3.51-2.55-8.26-2.55-11.77,0.01
			l-47.04,34.28c-3.96,2.89-7.55,0.73-8.55,0.01c-1-0.73-4.16-3.47-2.64-8.13l18.03-55.34c1.35-4.13-0.13-8.66-3.65-11.21
			l-47.17-34.05c-3.98-2.87-3.04-6.95-2.66-8.13c0.38-1.18,2.01-5.03,6.91-5.03h58.13c4.34,0,8.19-2.8,9.52-6.94l17.73-55.13
			c1.5-4.67,5.67-5.04,6.91-5.04h0.01c1.25,0,5.4,0.37,6.91,5.02l17.89,55.17c1.34,4.12,5.18,6.92,9.51,6.92h58.32
			c4.9,0,6.53,3.85,6.91,5.02C219.54,347.83,220.48,351.9,216.51,354.78L216.51,354.78z"/>
		<path id="XMLID_1230_" class="st0" d="M384.01,370.98c-5.52,0-10,4.48-10,10v13.33c0,5.52,4.48,10,10,10s10-4.48,10-10v-13.33
			C394,375.46,389.53,370.98,384.01,370.98z"/>
		<path id="XMLID_1233_" class="st0" d="M384.01,437.65c-5.52,0-10,4.48-10,10v13.33c0,5.52,4.48,10,10,10s10-4.48,10-10v-13.33
			C394,442.12,389.53,437.65,384.01,437.65z"/>
		<path id="XMLID_1257_" class="st0" d="M424,410.98h-13.33c-5.52,0-10,4.48-10,10s4.48,10,10,10H424c5.52,0,10-4.48,10-10
			S429.52,410.98,424,410.98z"/>
		<path id="XMLID_1264_" class="st0" d="M357.34,410.98h-13.33c-5.52,0-10,4.48-10,10s4.48,10,10,10h13.33c5.52,0,10-4.48,10-10
			S362.86,410.98,357.34,410.98z"/>
		<path id="XMLID_1292_" class="st0" d="M138.17,60.33c5.52,0,10-4.48,10-10V37c0-5.52-4.48-10-10-10c-5.52,0-10,4.48-10,10v13.33
			C128.17,55.86,132.65,60.33,138.17,60.33z"/>
		<path id="XMLID_1295_" class="st0" d="M138.17,127c5.52,0,10-4.48,10-10v-13.33c0-5.52-4.48-10-10-10c-5.52,0-10,4.48-10,10V117
			C128.17,122.52,132.65,127,138.17,127z"/>
		<path id="XMLID_1306_" class="st0" d="M164.84,87h13.33c5.52,0,10-4.48,10-10c0-5.52-4.48-10-10-10h-13.33c-5.52,0-10,4.48-10,10
			C154.84,82.52,159.32,87,164.84,87L164.84,87z"/>
		<path id="XMLID_1309_" class="st0" d="M98.18,87h13.33c5.52,0,10-4.48,10-10c0-5.52-4.48-10-10-10H98.18c-5.52,0-10,4.48-10,10
			C88.18,82.52,92.65,87,98.18,87z"/>
		<path id="XMLID_1310_" class="st0" d="M296.95,175.84c2.63,0,5.2-1.07,7.06-2.93c1.87-1.86,2.94-4.44,2.94-7.07
			c0-2.63-1.07-5.21-2.94-7.07c-1.85-1.86-4.43-2.93-7.06-2.93c-2.64,0-5.22,1.07-7.08,2.93c-1.86,1.86-2.92,4.44-2.92,7.07
			c0,2.63,1.06,5.21,2.92,7.07C291.74,174.77,294.31,175.84,296.95,175.84z"/>
	</g>
</g>
</svg>
