<?xml version="1.0" encoding="utf-8"?>
<!-- Generator: Adobe Illustrator 25.0.1, SVG Export Plug-In . SVG Version: 6.00 Build 0)  -->
<svg version="1.1" id="Layer_1" xmlns="http://www.w3.org/2000/svg" xmlns:xlink="http://www.w3.org/1999/xlink" x="0px" y="0px"
	 viewBox="0 0 1920 1080" style="enable-background:new 0 0 1920 1080;" xml:space="preserve">
<style type="text/css">
	.st0{fill:#FFDC64;}
	.st1{fill:#FFF082;}
	.st2{fill:#FFC850;}
</style>
<g>
	<path class="st0" d="M292.28,205.68l-23.51-2.18l-9.34-21.69c-0.65-1.52-2.81-1.52-3.46,0l-9.34,21.69l-23.51,2.18
		c-1.65,0.15-2.31,2.2-1.07,3.29l17.74,15.59l-5.19,23.04c-0.36,1.61,1.38,2.88,2.8,2.03l20.31-12.06L278,249.63
		c1.42,0.84,3.16-0.42,2.8-2.03l-5.19-23.04l17.74-15.59C294.59,207.88,293.92,205.83,292.28,205.68z"/>
	<g>
		<path class="st1" d="M233.65,181.06c1.2,1.67,4.58,8.82,6.52,12.98c0.3,0.66-0.52,1.25-1.04,0.75c-3.34-3.16-9.05-8.63-10.25-10.3
			c-0.95-1.32-0.65-3.15,0.67-4.1C230.87,179.44,232.7,179.74,233.65,181.06z"/>
		<path class="st1" d="M281.73,181.06c-1.2,1.67-4.58,8.82-6.52,12.98c-0.3,0.66,0.52,1.25,1.04,0.75
			c3.34-3.16,9.05-8.63,10.25-10.3c0.95-1.32,0.65-3.15-0.67-4.1C284.52,179.44,282.68,179.74,281.73,181.06z"/>
		<path class="st1" d="M300.67,229.89c-1.95-0.64-9.79-1.69-14.35-2.26c-0.72-0.09-1.03,0.87-0.4,1.22c4.02,2.22,10.97,6,12.92,6.63
			c1.54,0.5,3.2-0.34,3.71-1.88C303.06,232.05,302.22,230.39,300.67,229.89z"/>
		<path class="st1" d="M214.71,229.89c1.95-0.64,9.79-1.69,14.35-2.26c0.72-0.09,1.03,0.87,0.4,1.22c-4.02,2.22-10.97,6-12.92,6.63
			c-1.54,0.5-3.2-0.34-3.71-1.88S213.17,230.39,214.71,229.89z"/>
		<path class="st1" d="M254.84,263.06c0-2.05,1.43-9.83,2.3-14.34c0.14-0.71,1.15-0.71,1.28,0c0.87,4.51,2.3,12.29,2.3,14.34
			c0,1.62-1.32,2.94-2.94,2.94C256.16,266,254.84,264.68,254.84,263.06z"/>
	</g>
	<path class="st2" d="M262.82,189.69l-3.4-7.89c-0.65-1.52-2.81-1.52-3.46,0l-9.34,21.69l-23.51,2.18c-1.65,0.15-2.31,2.2-1.07,3.29
		l17.74,15.59l-5.19,23.04c-0.36,1.61,1.38,2.88,2.8,2.03l2.7-1.6C244.52,219.34,256.97,198.29,262.82,189.69z"/>
</g>
<g>
	<path class="st0" d="M180.83,862.56l-27.39-29.45l12.75-38.15c0.89-2.67-1.84-5.11-4.4-3.93l-36.48,16.95l-32.34-23.91
		c-2.26-1.67-5.43,0.17-5.09,2.97l4.85,39.93L60,850.33c-2.29,1.64-1.52,5.22,1.25,5.76l39.47,7.73l12.11,38.36
		c0.85,2.69,4.5,3.05,5.87,0.59l19.55-35.15l40.22,0.34C181.27,867.98,182.75,864.62,180.83,862.56z"/>
	<g>
		<path class="st1" d="M134.31,764.77c-0.37,3.47-4.18,16.4-6.46,23.88c-0.36,1.18-2.07,1-2.18-0.23
			c-0.66-7.8-1.69-21.23-1.32-24.71c0.29-2.75,2.75-4.74,5.5-4.45C132.61,759.56,134.6,762.02,134.31,764.77z"/>
		<path class="st1" d="M195.37,819.33c-3.41,0.75-15.82,6-23.01,9.09c-1.13,0.49-0.76,2.17,0.47,2.14c7.82-0.22,21.29-0.7,24.7-1.45
			c2.7-0.6,4.4-3.27,3.81-5.97C200.74,820.44,198.07,818.73,195.37,819.33z"/>
		<path class="st1" d="M164.02,902.84c-1.76-3.02-10.52-13.25-15.66-19.16c-0.81-0.93-2.3-0.06-1.89,1.1
			c2.59,7.39,7.13,20.07,8.89,23.09c1.39,2.39,4.45,3.2,6.84,1.81C164.6,908.29,165.41,905.23,164.02,902.84z"/>
		<path class="st1" d="M54.85,805.29c3.2,1.41,14.35,8.97,20.79,13.41c1.01,0.7,0.32,2.28-0.88,2c-7.63-1.74-20.74-4.84-23.94-6.24
			c-2.53-1.11-3.68-4.07-2.57-6.6C49.36,805.32,52.31,804.17,54.85,805.29z"/>
		<path class="st1" d="M68.17,892.96c2.33-2.61,12.98-10.86,19.19-15.61c0.98-0.75,2.26,0.4,1.63,1.46
			c-4.02,6.71-11.03,18.22-13.36,20.82c-1.84,2.06-5.01,2.24-7.07,0.4C66.51,898.19,66.33,895.02,68.17,892.96z"/>
	</g>
	<path class="st2" d="M161.56,808.83l4.64-13.87c0.89-2.67-1.84-5.11-4.4-3.93l-36.48,16.95l-32.34-23.91
		c-2.26-1.67-5.43,0.17-5.09,2.97l4.85,39.93L60,850.33c-2.29,1.64-1.52,5.22,1.25,5.76l5.25,1.03
		C104.67,825.72,144.38,813.12,161.56,808.83z"/>
</g>
<g>
	<path class="st0" d="M1808.78,894.21l-9.43-10.14l4.39-13.14c0.31-0.92-0.63-1.76-1.51-1.35l-12.56,5.84l-11.14-8.24
		c-0.78-0.58-1.87,0.06-1.75,1.02l1.67,13.75l-11.27,8.05c-0.79,0.56-0.52,1.8,0.43,1.98l13.59,2.66l4.17,13.21
		c0.29,0.92,1.55,1.05,2.02,0.2l6.73-12.11l13.85,0.12C1808.93,896.08,1809.44,894.92,1808.78,894.21z"/>
	<g>
		<path class="st1" d="M1792.76,860.53c-0.13,1.2-1.44,5.65-2.22,8.23c-0.12,0.41-0.71,0.34-0.75-0.08
			c-0.23-2.69-0.58-7.31-0.46-8.51c0.1-0.95,0.95-1.63,1.9-1.53C1792.17,858.74,1792.86,859.59,1792.76,860.53z"/>
		<path class="st1" d="M1813.79,879.32c-1.17,0.26-5.45,2.07-7.92,3.13c-0.39,0.17-0.26,0.75,0.16,0.74
			c2.69-0.08,7.33-0.24,8.51-0.5c0.93-0.21,1.52-1.13,1.31-2.06C1815.64,879.7,1814.72,879.12,1813.79,879.32z"/>
		<path class="st1" d="M1802.99,908.08c-0.6-1.04-3.62-4.56-5.39-6.6c-0.28-0.32-0.79-0.02-0.65,0.38c0.89,2.54,2.46,6.91,3.06,7.95
			c0.48,0.82,1.53,1.1,2.36,0.62C1803.19,909.96,1803.47,908.9,1802.99,908.08z"/>
		<path class="st1" d="M1765.39,874.49c1.1,0.48,4.94,3.09,7.16,4.62c0.35,0.24,0.11,0.78-0.3,0.69c-2.63-0.6-7.14-1.67-8.24-2.15
			c-0.87-0.38-1.27-1.4-0.89-2.27S1764.52,874.1,1765.39,874.49z"/>
		<path class="st1" d="M1769.98,904.68c0.8-0.9,4.47-3.74,6.61-5.38c0.34-0.26,0.78,0.14,0.56,0.5c-1.39,2.31-3.8,6.27-4.6,7.17
			c-0.63,0.71-1.72,0.77-2.43,0.14C1769.41,906.48,1769.35,905.39,1769.98,904.68z"/>
	</g>
	<path class="st2" d="M1802.14,875.71l1.6-4.78c0.31-0.92-0.63-1.76-1.51-1.35l-12.56,5.84l-11.14-8.24
		c-0.78-0.58-1.87,0.06-1.75,1.02l1.67,13.75l-11.27,8.05c-0.79,0.56-0.52,1.8,0.43,1.98l1.81,0.35
		C1782.55,881.52,1796.23,877.18,1802.14,875.71z"/>
</g>
<g>
	<path class="st0" d="M1642.61,286.73l-23.11-24.85l10.76-32.18c0.75-2.25-1.55-4.31-3.71-3.31l-30.77,14.3l-27.28-20.17
		c-1.91-1.41-4.58,0.14-4.3,2.5l4.09,33.68l-27.62,19.71c-1.93,1.38-1.28,4.4,1.05,4.86l33.3,6.52l10.21,32.36
		c0.72,2.27,3.79,2.58,4.95,0.5l16.49-29.65l33.93,0.29C1642.98,291.31,1644.23,288.47,1642.61,286.73z"/>
	<g>
		<path class="st1" d="M1603.36,204.24c-0.31,2.93-3.53,13.83-5.45,20.15c-0.3,0.99-1.75,0.84-1.84-0.19
			c-0.56-6.58-1.43-17.91-1.12-20.84c0.24-2.32,2.32-4,4.64-3.76C1601.93,199.84,1603.61,201.92,1603.36,204.24z"/>
		<path class="st1" d="M1654.87,250.26c-2.88,0.64-13.35,5.06-19.41,7.67c-0.95,0.41-0.64,1.83,0.4,1.8
			c6.6-0.19,17.96-0.59,20.84-1.23c2.28-0.5,3.72-2.76,3.21-5.04C1659.41,251.2,1657.15,249.76,1654.87,250.26z"/>
		<path class="st1" d="M1628.43,320.71c-1.48-2.55-8.88-11.18-13.21-16.16c-0.68-0.78-1.94-0.05-1.6,0.93
			c2.18,6.23,6.02,16.93,7.5,19.48c1.17,2.02,3.76,2.7,5.77,1.53C1628.91,325.31,1629.6,322.73,1628.43,320.71z"/>
		<path class="st1" d="M1536.32,238.42c2.7,1.19,12.11,7.57,17.54,11.31c0.85,0.59,0.27,1.92-0.74,1.69
			c-6.44-1.47-17.5-4.08-20.2-5.27c-2.14-0.94-3.11-3.43-2.17-5.57S1534.19,237.48,1536.32,238.42z"/>
		<path class="st1" d="M1547.56,312.38c1.96-2.2,10.95-9.16,16.19-13.17c0.82-0.63,1.91,0.34,1.38,1.23
			c-3.39,5.66-9.31,15.37-11.27,17.57c-1.55,1.74-4.22,1.89-5.96,0.34C1546.16,316.79,1546.01,314.12,1547.56,312.38z"/>
	</g>
	<path class="st2" d="M1626.35,241.41l3.91-11.7c0.75-2.25-1.55-4.31-3.71-3.31l-30.77,14.3l-27.28-20.17
		c-1.91-1.41-4.58,0.14-4.3,2.5l4.09,33.68l-27.62,19.71c-1.93,1.38-1.28,4.4,1.05,4.86l4.43,0.87
		C1578.36,255.66,1611.86,245.02,1626.35,241.41z"/>
</g>
<g>
	<path class="st0" d="M764.42,963.66l-14.64-15.74l6.81-20.39c0.48-1.43-0.98-2.73-2.35-2.1l-19.49,9.06l-17.28-12.78
		c-1.21-0.89-2.9,0.09-2.72,1.59l2.59,21.34l-17.49,12.49c-1.22,0.87-0.81,2.79,0.67,3.08l21.09,4.13l6.47,20.5
		c0.45,1.44,2.4,1.63,3.13,0.32l10.45-18.78l21.49,0.18C764.65,966.55,765.44,964.76,764.42,963.66z"/>
	<g>
		<path class="st1" d="M739.56,911.4c-0.2,1.86-2.24,8.76-3.45,12.76c-0.19,0.63-1.11,0.53-1.16-0.12
			c-0.35-4.17-0.9-11.35-0.71-13.2c0.16-1.47,1.47-2.53,2.94-2.38C738.65,908.61,739.71,909.93,739.56,911.4z"/>
		<path class="st1" d="M772.19,940.55c-1.82,0.4-8.46,3.2-12.3,4.86c-0.6,0.26-0.4,1.16,0.25,1.14c4.18-0.12,11.38-0.37,13.2-0.78
			c1.44-0.32,2.35-1.75,2.03-3.19C775.06,941.15,773.63,940.23,772.19,940.55z"/>
		<path class="st1" d="M755.43,985.18c-0.94-1.61-5.62-7.08-8.37-10.24c-0.43-0.5-1.23-0.03-1.01,0.59
			c1.38,3.95,3.81,10.72,4.75,12.34c0.74,1.28,2.38,1.71,3.66,0.97C755.74,988.09,756.18,986.46,755.43,985.18z"/>
		<path class="st1" d="M697.09,933.05c1.71,0.75,7.67,4.79,11.11,7.17c0.54,0.37,0.17,1.22-0.47,1.07
			c-4.08-0.93-11.08-2.59-12.79-3.34c-1.35-0.59-1.97-2.17-1.37-3.53C694.16,933.07,695.74,932.46,697.09,933.05z"/>
		<path class="st1" d="M704.21,979.9c1.24-1.39,6.93-5.8,10.26-8.34c0.52-0.4,1.21,0.22,0.87,0.78c-2.15,3.59-5.9,9.74-7.14,11.13
			c-0.98,1.1-2.68,1.2-3.78,0.21C703.32,982.69,703.23,981,704.21,979.9z"/>
	</g>
	<path class="st2" d="M754.11,934.94l2.48-7.41c0.48-1.43-0.98-2.73-2.35-2.1l-19.49,9.06l-17.28-12.78
		c-1.21-0.89-2.9,0.09-2.72,1.59l2.59,21.34l-17.49,12.49c-1.22,0.87-0.81,2.79,0.67,3.08l2.81,0.55
		C723.72,943.97,744.94,937.23,754.11,934.94z"/>
</g>
</svg>
