<?xml version="1.0" encoding="utf-8"?>
<!-- Generator: Adobe Illustrator 25.0.1, SVG Export Plug-In . SVG Version: 6.00 Build 0)  -->
<svg version="1.1" id="Layer_1" xmlns="http://www.w3.org/2000/svg" xmlns:xlink="http://www.w3.org/1999/xlink" x="0px" y="0px"
	 viewBox="0 0 1920 1080" style="enable-background:new 0 0 1920 1080;" xml:space="preserve">
<style type="text/css">
	.st0{filter:url(#Adobe_OpacityMaskFilter);}
	.st1{fill:url(#SVGID_2_);}
	.st2{opacity:0.5;mask:url(#SVGID_1_);fill:#FFD20A;}
	.st3{filter:url(#Adobe_OpacityMaskFilter_1_);}
	.st4{fill:url(#SVGID_4_);}
	.st5{opacity:0.5;mask:url(#SVGID_3_);fill:#FFD20A;}
	.st6{filter:url(#Adobe_OpacityMaskFilter_2_);}
	.st7{fill:url(#SVGID_6_);}
	.st8{opacity:0.5;mask:url(#SVGID_5_);fill:#FFD20A;}
	.st9{filter:url(#Adobe_OpacityMaskFilter_3_);}
	.st10{fill:url(#SVGID_8_);}
	.st11{opacity:0.5;mask:url(#SVGID_7_);fill:#FFF100;}
	.st12{filter:url(#Adobe_OpacityMaskFilter_4_);}
	.st13{fill:url(#SVGID_10_);}
	.st14{opacity:0.5;mask:url(#SVGID_9_);fill:#FFD20A;}
	.st15{filter:url(#Adobe_OpacityMaskFilter_5_);}
	.st16{fill:url(#SVGID_12_);}
	.st17{opacity:0.5;mask:url(#SVGID_11_);fill:#FFF100;}
	.st18{filter:url(#Adobe_OpacityMaskFilter_6_);}
	.st19{fill:url(#SVGID_14_);}
	.st20{opacity:0.5;mask:url(#SVGID_13_);fill:#FFF100;}
	.st21{filter:url(#Adobe_OpacityMaskFilter_7_);}
	.st22{fill:url(#SVGID_16_);}
	.st23{opacity:0.5;mask:url(#SVGID_15_);fill:#FFF100;}
	.st24{filter:url(#Adobe_OpacityMaskFilter_8_);}
	.st25{fill:url(#SVGID_18_);}
	.st26{opacity:0.5;mask:url(#SVGID_17_);fill:#FFF100;}
</style>
<defs>
	<filter id="Adobe_OpacityMaskFilter" filterUnits="userSpaceOnUse" x="22.29" y="395.84" width="168.85" height="168.85">
		<feColorMatrix  type="matrix" values="1 0 0 0 0  0 1 0 0 0  0 0 1 0 0  0 0 0 1 0"/>
	</filter>
</defs>
<mask maskUnits="userSpaceOnUse" x="22.29" y="395.84" width="168.85" height="168.85" id="SVGID_1_">
	<g class="st0">
		
			<radialGradient id="SVGID_2_" cx="1814.2" cy="480.269" r="84.426" gradientTransform="matrix(-1 0 0 1 1920.9141 0)" gradientUnits="userSpaceOnUse">
			<stop  offset="0" style="stop-color:#FFFFFF"/>
			<stop  offset="0.1814" style="stop-color:#D3D2D2"/>
			<stop  offset="0.5845" style="stop-color:#757273"/>
			<stop  offset="0.8662" style="stop-color:#3A3637"/>
			<stop  offset="1" style="stop-color:#231F20"/>
		</radialGradient>
		<path class="st1" d="M22.29,480.27c0,46.63,37.8,84.43,84.42,84.43c46.63,0,84.43-37.8,84.43-84.43
			c0-46.63-37.8-84.43-84.43-84.43C60.09,395.84,22.29,433.64,22.29,480.27z"/>
	</g>
</mask>
<path class="st2" d="M22.29,480.27c0,46.63,37.8,84.43,84.42,84.43c46.63,0,84.43-37.8,84.43-84.43c0-46.63-37.8-84.43-84.43-84.43
	C60.09,395.84,22.29,433.64,22.29,480.27z"/>
<defs>
	<filter id="Adobe_OpacityMaskFilter_1_" filterUnits="userSpaceOnUse" x="1484.29" y="459.84" width="168.85" height="168.85">
		<feColorMatrix  type="matrix" values="1 0 0 0 0  0 1 0 0 0  0 0 1 0 0  0 0 0 1 0"/>
	</filter>
</defs>
<mask maskUnits="userSpaceOnUse" x="1484.29" y="459.84" width="168.85" height="168.85" id="SVGID_3_">
	<g class="st3">
		
			<radialGradient id="SVGID_4_" cx="352.2" cy="544.269" r="84.426" gradientTransform="matrix(-1 0 0 1 1920.9141 0)" gradientUnits="userSpaceOnUse">
			<stop  offset="0" style="stop-color:#FFFFFF"/>
			<stop  offset="0.1814" style="stop-color:#D3D2D2"/>
			<stop  offset="0.5845" style="stop-color:#757273"/>
			<stop  offset="0.8662" style="stop-color:#3A3637"/>
			<stop  offset="1" style="stop-color:#231F20"/>
		</radialGradient>
		<path class="st4" d="M1484.29,544.27c0,46.63,37.8,84.43,84.42,84.43c46.63,0,84.43-37.8,84.43-84.43
			c0-46.63-37.8-84.43-84.43-84.43C1522.09,459.84,1484.29,497.64,1484.29,544.27z"/>
	</g>
</mask>
<path class="st5" d="M1484.29,544.27c0,46.63,37.8,84.43,84.42,84.43c46.63,0,84.43-37.8,84.43-84.43
	c0-46.63-37.8-84.43-84.43-84.43C1522.09,459.84,1484.29,497.64,1484.29,544.27z"/>
<defs>
	<filter id="Adobe_OpacityMaskFilter_2_" filterUnits="userSpaceOnUse" x="92.29" y="758.84" width="90.21" height="90.21">
		<feColorMatrix  type="matrix" values="1 0 0 0 0  0 1 0 0 0  0 0 1 0 0  0 0 0 1 0"/>
	</filter>
</defs>
<mask maskUnits="userSpaceOnUse" x="92.29" y="758.84" width="90.21" height="90.21" id="SVGID_5_">
	<g class="st6">
		
			<radialGradient id="SVGID_6_" cx="1783.5201" cy="803.949" r="45.1059" gradientTransform="matrix(-1 0 0 1 1920.9141 0)" gradientUnits="userSpaceOnUse">
			<stop  offset="0" style="stop-color:#FFFFFF"/>
			<stop  offset="0.1814" style="stop-color:#D3D2D2"/>
			<stop  offset="0.5845" style="stop-color:#757273"/>
			<stop  offset="0.8662" style="stop-color:#3A3637"/>
			<stop  offset="1" style="stop-color:#231F20"/>
		</radialGradient>
		<path class="st7" d="M92.29,803.95c0,24.91,20.2,45.11,45.11,45.11c24.91,0,45.11-20.19,45.11-45.11
			c0-24.91-20.19-45.11-45.11-45.11C112.48,758.84,92.29,779.04,92.29,803.95z"/>
	</g>
</mask>
<path class="st8" d="M92.29,803.95c0,24.91,20.2,45.11,45.11,45.11c24.91,0,45.11-20.19,45.11-45.11
	c0-24.91-20.19-45.11-45.11-45.11C112.48,758.84,92.29,779.04,92.29,803.95z"/>
<defs>
	<filter id="Adobe_OpacityMaskFilter_3_" filterUnits="userSpaceOnUse" x="69.22" y="350.2" width="168.85" height="168.85">
		<feColorMatrix  type="matrix" values="1 0 0 0 0  0 1 0 0 0  0 0 1 0 0  0 0 0 1 0"/>
	</filter>
</defs>
<mask maskUnits="userSpaceOnUse" x="69.22" y="350.2" width="168.85" height="168.85" id="SVGID_7_">
	<g class="st9">
		<radialGradient id="SVGID_8_" cx="153.6476" cy="434.6257" r="84.426" gradientUnits="userSpaceOnUse">
			<stop  offset="0" style="stop-color:#FFFFFF"/>
			<stop  offset="0.1814" style="stop-color:#D3D2D2"/>
			<stop  offset="0.5845" style="stop-color:#757273"/>
			<stop  offset="0.8662" style="stop-color:#3A3637"/>
			<stop  offset="1" style="stop-color:#231F20"/>
		</radialGradient>
		<path class="st10" d="M238.07,434.63c0,46.63-37.8,84.43-84.42,84.43c-46.63,0-84.43-37.8-84.43-84.43
			c0-46.63,37.8-84.43,84.43-84.43C200.27,350.2,238.07,388,238.07,434.63z"/>
	</g>
</mask>
<path class="st11" d="M238.07,434.63c0,46.63-37.8,84.43-84.42,84.43c-46.63,0-84.43-37.8-84.43-84.43
	c0-46.63,37.8-84.43,84.43-84.43C200.27,350.2,238.07,388,238.07,434.63z"/>
<defs>
	<filter id="Adobe_OpacityMaskFilter_4_" filterUnits="userSpaceOnUse" x="1640.5" y="144.32" width="203.9" height="203.9">
		<feColorMatrix  type="matrix" values="1 0 0 0 0  0 1 0 0 0  0 0 1 0 0  0 0 0 1 0"/>
	</filter>
</defs>
<mask maskUnits="userSpaceOnUse" x="1640.5" y="144.32" width="203.9" height="203.9" id="SVGID_9_">
	<g class="st12">
		
			<radialGradient id="SVGID_10_" cx="178.4646" cy="246.2659" r="101.9493" gradientTransform="matrix(-1 0 0 1 1920.9141 0)" gradientUnits="userSpaceOnUse">
			<stop  offset="0" style="stop-color:#FFFFFF"/>
			<stop  offset="0.1814" style="stop-color:#D3D2D2"/>
			<stop  offset="0.5845" style="stop-color:#757273"/>
			<stop  offset="0.8662" style="stop-color:#3A3637"/>
			<stop  offset="1" style="stop-color:#231F20"/>
		</radialGradient>
		<path class="st13" d="M1640.5,246.27c0,56.3,45.65,101.95,101.95,101.95c56.31,0,101.95-45.64,101.95-101.95
			c0-56.3-45.64-101.95-101.95-101.95C1686.15,144.32,1640.5,189.96,1640.5,246.27z"/>
	</g>
</mask>
<path class="st14" d="M1640.5,246.27c0,56.3,45.65,101.95,101.95,101.95c56.31,0,101.95-45.64,101.95-101.95
	c0-56.3-45.64-101.95-101.95-101.95C1686.15,144.32,1640.5,189.96,1640.5,246.27z"/>
<defs>
	<filter id="Adobe_OpacityMaskFilter_5_" filterUnits="userSpaceOnUse" x="1697.17" y="89.2" width="203.9" height="203.9">
		<feColorMatrix  type="matrix" values="1 0 0 0 0  0 1 0 0 0  0 0 1 0 0  0 0 0 1 0"/>
	</filter>
</defs>
<mask maskUnits="userSpaceOnUse" x="1697.17" y="89.2" width="203.9" height="203.9" id="SVGID_11_">
	<g class="st15">
		<radialGradient id="SVGID_12_" cx="1799.1243" cy="191.1489" r="101.9493" gradientUnits="userSpaceOnUse">
			<stop  offset="0" style="stop-color:#FFFFFF"/>
			<stop  offset="0.1814" style="stop-color:#D3D2D2"/>
			<stop  offset="0.5845" style="stop-color:#757273"/>
			<stop  offset="0.8662" style="stop-color:#3A3637"/>
			<stop  offset="1" style="stop-color:#231F20"/>
		</radialGradient>
		<path class="st16" d="M1901.07,191.15c0,56.3-45.65,101.95-101.95,101.95c-56.31,0-101.95-45.64-101.95-101.95
			c0-56.3,45.64-101.95,101.95-101.95C1855.43,89.2,1901.07,134.84,1901.07,191.15z"/>
	</g>
</mask>
<path class="st17" d="M1901.07,191.15c0,56.3-45.65,101.95-101.95,101.95c-56.31,0-101.95-45.64-101.95-101.95
	c0-56.3,45.64-101.95,101.95-101.95C1855.43,89.2,1901.07,134.84,1901.07,191.15z"/>
<defs>
	<filter id="Adobe_OpacityMaskFilter_6_" filterUnits="userSpaceOnUse" x="1392.5" y="862.52" width="128.57" height="128.57">
		<feColorMatrix  type="matrix" values="1 0 0 0 0  0 1 0 0 0  0 0 1 0 0  0 0 0 1 0"/>
	</filter>
</defs>
<mask maskUnits="userSpaceOnUse" x="1392.5" y="862.52" width="128.57" height="128.57" id="SVGID_13_">
	<g class="st18">
		<radialGradient id="SVGID_14_" cx="1456.7869" cy="926.8114" r="64.2867" gradientUnits="userSpaceOnUse">
			<stop  offset="0" style="stop-color:#FFFFFF"/>
			<stop  offset="0.1814" style="stop-color:#D3D2D2"/>
			<stop  offset="0.5845" style="stop-color:#757273"/>
			<stop  offset="0.8662" style="stop-color:#3A3637"/>
			<stop  offset="1" style="stop-color:#231F20"/>
		</radialGradient>
		<path class="st19" d="M1521.07,926.81c0,35.5-28.78,64.29-64.29,64.29c-35.51,0-64.29-28.78-64.29-64.29
			c0-35.5,28.78-64.29,64.29-64.29C1492.29,862.52,1521.07,891.31,1521.07,926.81z"/>
	</g>
</mask>
<path class="st20" d="M1521.07,926.81c0,35.5-28.78,64.29-64.29,64.29c-35.51,0-64.29-28.78-64.29-64.29
	c0-35.5,28.78-64.29,64.29-64.29C1492.29,862.52,1521.07,891.31,1521.07,926.81z"/>
<defs>
	<filter id="Adobe_OpacityMaskFilter_7_" filterUnits="userSpaceOnUse" x="340.22" y="190.7" width="118.35" height="118.35">
		<feColorMatrix  type="matrix" values="1 0 0 0 0  0 1 0 0 0  0 0 1 0 0  0 0 0 1 0"/>
	</filter>
</defs>
<mask maskUnits="userSpaceOnUse" x="340.22" y="190.7" width="118.35" height="118.35" id="SVGID_15_">
	<g class="st21">
		<radialGradient id="SVGID_16_" cx="399.3961" cy="249.8771" r="59.1745" gradientUnits="userSpaceOnUse">
			<stop  offset="0" style="stop-color:#FFFFFF"/>
			<stop  offset="0.1814" style="stop-color:#D3D2D2"/>
			<stop  offset="0.5845" style="stop-color:#757273"/>
			<stop  offset="0.8662" style="stop-color:#3A3637"/>
			<stop  offset="1" style="stop-color:#231F20"/>
		</radialGradient>
		<path class="st22" d="M458.57,249.88c0,32.68-26.49,59.17-59.17,59.17c-32.68,0-59.18-26.49-59.18-59.17
			c0-32.68,26.49-59.17,59.18-59.17C432.08,190.7,458.57,217.2,458.57,249.88z"/>
	</g>
</mask>
<path class="st23" d="M458.57,249.88c0,32.68-26.49,59.17-59.17,59.17c-32.68,0-59.18-26.49-59.18-59.17
	c0-32.68,26.49-59.17,59.18-59.17C432.08,190.7,458.57,217.2,458.57,249.88z"/>
<defs>
	<filter id="Adobe_OpacityMaskFilter_8_" filterUnits="userSpaceOnUse" x="736.29" y="763.77" width="216.21" height="216.21">
		<feColorMatrix  type="matrix" values="1 0 0 0 0  0 1 0 0 0  0 0 1 0 0  0 0 0 1 0"/>
	</filter>
</defs>
<mask maskUnits="userSpaceOnUse" x="736.29" y="763.77" width="216.21" height="216.21" id="SVGID_17_">
	<g class="st24">
		<radialGradient id="SVGID_18_" cx="844.3961" cy="871.8771" r="108.1037" gradientUnits="userSpaceOnUse">
			<stop  offset="0" style="stop-color:#FFFFFF"/>
			<stop  offset="0.1814" style="stop-color:#D3D2D2"/>
			<stop  offset="0.5845" style="stop-color:#757273"/>
			<stop  offset="0.8662" style="stop-color:#3A3637"/>
			<stop  offset="1" style="stop-color:#231F20"/>
		</radialGradient>
		<path class="st25" d="M952.5,871.88c0,59.7-48.4,108.1-108.1,108.1c-59.71,0-108.11-48.4-108.11-108.1
			c0-59.7,48.4-108.1,108.11-108.1C904.1,763.77,952.5,812.17,952.5,871.88z"/>
	</g>
</mask>
<path class="st26" d="M952.5,871.88c0,59.7-48.4,108.1-108.1,108.1c-59.71,0-108.11-48.4-108.11-108.1
	c0-59.7,48.4-108.1,108.11-108.1C904.1,763.77,952.5,812.17,952.5,871.88z"/>
</svg>
