<?xml version="1.0" encoding="utf-8"?>
<!-- Generator: Adobe Illustrator 24.0.0, SVG Export Plug-In . SVG Version: 6.00 Build 0)  -->
<svg version="1.0" id="Layer_1" xmlns="http://www.w3.org/2000/svg" xmlns:xlink="http://www.w3.org/1999/xlink" x="0px" y="0px"
	 viewBox="0 0 122 121" style="enable-background:new 0 0 122 121;" xml:space="preserve">
<style type="text/css">
	.st0{fill:#FFF30D;}
</style>
<g>
	<path class="st0" d="M81.71,60.51c-0.21-1.02-0.41-1.94-0.62-2.76c-0.25-1.1-0.51-2.37-0.77-3.81c-0.27-1.43-0.53-2.72-0.77-3.87
		c-0.17-0.74-0.33-1.6-0.5-2.58c-0.17-0.98-0.35-1.82-0.56-2.52c-0.17,0.74-0.34,1.61-0.53,2.61c-0.19,1-0.38,1.85-0.59,2.55
		c-0.46,1.84-0.87,3.63-1.24,5.37c-0.37,1.74-0.81,3.43-1.3,5.06c-0.08,0.29-0.22,0.76-0.4,1.41c-0.19,0.65-0.32,1.13-0.4,1.41h8.31
		C82.12,62.5,81.92,61.53,81.71,60.51z"/>
	<path class="st0" d="M17.95,102.77c5.55,5.49,12,9.8,19.19,12.81c7.44,3.12,15.35,4.7,23.5,4.7s16.06-1.58,23.5-4.7
		c7.19-3.01,13.65-7.32,19.19-12.81c5.55-5.49,9.9-11.88,12.94-19c3.15-7.37,4.74-15.2,4.74-23.27s-1.6-15.9-4.74-23.27
		c-3.04-7.12-7.39-13.51-12.94-19c-5.55-5.49-12-9.8-19.19-12.81c-7.44-3.12-15.35-4.7-23.5-4.7s-16.06,1.58-23.5,4.7
		c-7.19,3.01-13.65,7.32-19.19,12.81c-4.64,4.6-8.44,9.82-11.34,15.58c0.93-0.22,1.93-0.34,3.01-0.36
		c4.63-0.08,8.07,1.86,10.32,5.83c2.25,3.97,3.34,9.86,3.25,17.68C23.15,66.98,21.72,73.99,18.91,78c0.66,0.9,1.32,1.78,1.98,2.64
		c0.66,0.86,1.36,1.72,2.11,2.58c0.45,0.57,0.63,1.16,0.53,1.75c-0.1,0.59-0.36,1.11-0.77,1.57c-0.46,0.45-1,0.72-1.64,0.8
		c-0.64,0.08-1.23-0.18-1.77-0.8c-0.7-0.82-1.39-1.66-2.08-2.52c-0.68-0.86-1.35-1.72-2.01-2.58c-1.94,1.1-4.28,1.66-7,1.66
		c-1.41,0-2.68-0.23-3.8-0.7c0.18,0.46,0.37,0.91,0.56,1.37C8.05,90.89,12.41,97.28,17.95,102.77z M64.17,80.21
		c0.78-3.64,1.62-7.12,2.51-10.43c0.89-3.31,1.79-6.51,2.7-9.58c0.99-3.48,2.02-7.2,3.1-11.17c1.07-3.97,2.11-8.37,3.1-13.2
		c0.16-0.7,0.44-1.27,0.84-1.72c0.39-0.45,1-0.68,1.83-0.68c0.58,0,1.08,0.13,1.52,0.4c0.43,0.27,0.73,0.69,0.9,1.26
		c1.2,3.93,2.41,8.19,3.63,12.8c1.22,4.6,2.37,9.16,3.44,13.66c0.78,3.19,1.55,6.39,2.29,9.61c0.74,3.21,1.51,6.21,2.29,8.99
		c0.12,0.49,0.13,0.95,0.03,1.38c-0.1,0.43-0.29,0.8-0.56,1.1c-0.27,0.31-0.6,0.54-0.99,0.71c-0.39,0.16-0.77,0.25-1.15,0.25
		c-1.41,0-2.32-0.72-2.73-2.15c-0.7-2.21-1.29-4.37-1.77-6.48c-0.48-2.11-0.98-4.18-1.52-6.23H72.47c-0.5,1.84-0.98,3.81-1.46,5.89
		c-0.48,2.09-0.96,4.36-1.46,6.81c-0.21,0.61-0.59,1.11-1.15,1.5c-0.56,0.39-1.13,0.58-1.7,0.58c-0.79,0-1.46-0.29-2.01-0.86
		C64.13,82.09,63.96,81.28,64.17,80.21z M30.94,68.96c0.41-1.39,0.96-2.78,1.64-4.15c0.68-1.37,1.45-2.7,2.29-4
		c0.85-1.29,1.68-2.53,2.51-3.72c-0.95-1.8-1.82-3.66-2.6-5.56c-0.79-1.9-1.28-4.15-1.49-6.73c-0.12-1.31-0.04-2.6,0.25-3.87
		c0.29-1.27,0.8-2.42,1.52-3.44c0.72-1.02,1.64-1.84,2.76-2.46c1.12-0.61,2.42-0.92,3.91-0.92c1.36,0,2.53,0.26,3.5,0.77
		c0.97,0.51,1.77,1.2,2.39,2.06s1.07,1.84,1.36,2.95c0.29,1.11,0.43,2.25,0.43,3.44c0,1.11-0.18,2.26-0.53,3.47
		c-0.35,1.21-0.82,2.43-1.39,3.66c-0.58,1.23-1.22,2.45-1.92,3.66c-0.7,1.21-1.41,2.37-2.11,3.47c0.33,0.57,0.64,1.21,0.93,1.91
		c0.29,0.7,0.6,1.35,0.93,1.97c1.2,2.29,2.75,4.9,4.65,7.8c0.29-0.61,0.54-1.29,0.74-2.03c0.21-0.74,0.39-1.43,0.56-2.09
		c0.16-0.7,0.49-1.23,0.96-1.6c0.47-0.37,1-0.51,1.58-0.43c0.74,0.08,1.36,0.43,1.86,1.05s0.64,1.39,0.43,2.33
		c-0.29,1.48-0.65,2.84-1.08,4.09c-0.43,1.25-0.94,2.43-1.52,3.53c0.62,0.78,1.36,1.56,2.23,2.34c0.87,0.78,1.65,1.41,2.36,1.9
		c0.62,0.41,1.02,0.95,1.21,1.63c0.19,0.68,0.05,1.34-0.4,2c-0.37,0.49-0.93,0.81-1.67,0.95c-0.74,0.14-1.49-0.01-2.23-0.46
		c-0.79-0.49-1.57-1.1-2.36-1.81c-0.79-0.72-1.53-1.46-2.23-2.24c-1.32,1.43-2.8,2.54-4.43,3.32c-1.63,0.78-3.42,1.19-5.36,1.23
		c-1.65,0.04-3.11-0.21-4.37-0.74c-1.26-0.53-2.31-1.26-3.16-2.18c-0.85-0.92-1.5-1.99-1.95-3.2c-0.46-1.21-0.7-2.49-0.74-3.84
		C30.34,71.71,30.53,70.36,30.94,68.96z"/>
	<path class="st0" d="M39.59,48.11c0.43,1.19,0.9,2.44,1.39,3.74c0.66-1.1,1.21-2.21,1.64-3.31c0.43-1.1,0.82-2.25,1.15-3.44
		c0.45-1.72,0.49-3.16,0.09-4.33c-0.39-1.17-1.13-1.75-2.2-1.75c-0.83,0.04-1.56,0.6-2.2,1.69c-0.64,1.08-0.86,2.47-0.65,4.14
		C38.89,45.84,39.15,46.93,39.59,48.11z"/>
	<path class="st0" d="M36.8,76.44c0.35,0.47,0.83,0.86,1.43,1.17c0.6,0.31,1.33,0.46,2.2,0.46c1.4,0.08,2.68-0.25,3.81-0.98
		c1.14-0.74,2.14-1.66,3.01-2.76c-1.24-1.8-2.46-3.73-3.66-5.8c-1.2-2.07-2.36-4.14-3.47-6.23c-1.16,1.68-2.17,3.42-3.04,5.22
		c-0.87,1.8-1.3,3.68-1.3,5.65c0,0.57,0.08,1.15,0.25,1.72C36.19,75.45,36.45,75.97,36.8,76.44z"/>
	<path class="st0" d="M12.22,77.14c-0.62-0.9-1.21-1.79-1.77-2.67c-0.56-0.88-1.13-1.77-1.7-2.67c-0.33-0.53-0.49-1.05-0.47-1.54
		c0.02-0.49,0.16-0.93,0.4-1.32c0.25-0.39,0.58-0.71,0.99-0.95c0.41-0.25,0.85-0.37,1.3-0.37c1.03,0,1.82,0.45,2.36,1.35
		c0.37,0.66,0.73,1.29,1.08,1.91c0.35,0.61,0.69,1.21,1.02,1.78c0.66-1.64,1.17-3.72,1.52-6.24c0.35-2.52,0.55-5.58,0.59-9.19
		c0-2.79-0.15-5.32-0.43-7.59c-0.29-2.27-0.74-4.22-1.36-5.84c-0.62-1.62-1.41-2.88-2.36-3.78c-0.95-0.9-2.11-1.39-3.47-1.48
		c-1.41-0.04-2.6,0.31-3.6,1.05c-0.99,0.74-1.81,1.72-2.45,2.95c-0.64,1.23-1.14,2.61-1.49,4.15c-0.35,1.54-0.62,3.05-0.81,4.55
		c-0.19,1.5-0.29,2.89-0.31,4.18c-0.02,1.29-0.03,2.31-0.03,3.04c0.04,2.95,0.23,5.65,0.56,8.08c0.33,2.44,0.81,4.52,1.43,6.24
		c0.62,1.72,1.38,3.05,2.29,4c0.91,0.94,1.96,1.41,3.16,1.41C9.97,78.19,11.14,77.84,12.22,77.14z"/>
	<path class="st0" d="M60.65,0.5c-23.81,0-44.41,13.6-54.32,33.38c0.04-0.01,0.08-0.02,0.11-0.03c2.88-5.74,6.72-11.03,11.43-15.7
		C29.3,6.84,44.49,0.61,60.65,0.61c16.16,0,31.35,6.23,42.77,17.54c11.42,11.31,17.72,26.35,17.72,42.35s-6.29,31.04-17.72,42.35
		C92,114.16,76.81,120.39,60.65,120.39c-16.16,0-31.35-6.23-42.77-17.54c-6-5.94-10.58-12.91-13.58-20.51
		c-0.04-0.02-0.08-0.04-0.12-0.06c8.81,22.37,30.77,38.22,56.48,38.22c33.47,0,60.6-26.86,60.6-60S94.12,0.5,60.65,0.5z"/>
	<path class="st0" d="M17.95,18.23c5.55-5.49,12-9.8,19.19-12.81c7.44-3.12,15.35-4.7,23.5-4.7s16.06,1.58,23.5,4.7
		c7.19,3.01,13.65,7.32,19.19,12.81c5.55,5.49,9.9,11.88,12.94,19c3.15,7.37,4.74,15.2,4.74,23.27s-1.6,15.9-4.74,23.27
		c-3.04,7.12-7.39,13.51-12.94,19c-5.55,5.49-12,9.8-19.19,12.81c-7.44,3.12-15.35,4.7-23.5,4.7s-16.06-1.58-23.5-4.7
		c-7.19-3.01-13.65-7.32-19.19-12.81c-5.55-5.49-9.9-11.88-12.94-19c-0.19-0.45-0.38-0.91-0.56-1.37c-0.05-0.02-0.11-0.04-0.16-0.06
		c3,7.6,7.58,14.57,13.58,20.51c11.42,11.31,26.61,17.54,42.77,17.54c16.16,0,31.35-6.23,42.77-17.54
		c11.42-11.31,17.72-26.35,17.72-42.35s-6.29-31.04-17.72-42.35C92,6.84,76.81,0.61,60.65,0.61c-16.16,0-31.35,6.23-42.77,17.54
		c-4.71,4.66-8.54,9.96-11.43,15.7c0.05-0.01,0.11-0.03,0.16-0.04C9.51,28.05,13.31,22.82,17.95,18.23z"/>
</g>
</svg>
