<svg xmlns="http://www.w3.org/2000/svg" viewBox="0 0 307.43 168.74"><defs><style>.cls-1{fill:#fff;}</style></defs><title>Asset 5</title><g id="Layer_2" data-name="Layer 2"><g id="Layer_1-2" data-name="Layer 1"><path class="cls-1" d="M18.71,163.1c0,.91.17,1.49.5,1.72a2.67,2.67,0,0,0,1.48.34H30.2a2.66,2.66,0,0,0,1.53-.34c.3-.23.45-.81.45-1.72V135.68H39.6a31.34,31.34,0,0,0,9.95-1.52,22.13,22.13,0,0,0,7.92-4.47,21.2,21.2,0,0,0,5.25-7.27,24.31,24.31,0,0,0,1.93-10,28.11,28.11,0,0,0-1.43-9.29C46.76,101,31.81,98.49,18.71,95.93Zm13.47-61.41h9.6a8.71,8.71,0,0,1,6.68,2.7Q51,107.09,51,112.3q0,5.9-3.17,8.55t-9.11,2.65H32.18Z"/><path class="cls-1" d="M119.39,108.43a29.44,29.44,0,0,1,3.51,8.76A43.42,43.42,0,0,1,124,127a44.4,44.4,0,0,1-1.14,10,29.22,29.22,0,0,1-3.51,8.81,19.33,19.33,0,0,1-6.09,6.24,16,16,0,0,1-8.76,2.38,16.15,16.15,0,0,1-8.87-2.38,19.65,19.65,0,0,1-6.13-6.24A28.3,28.3,0,0,1,86,137.09,44.83,44.83,0,0,1,86,117a28.46,28.46,0,0,1,3.57-8.77,19.59,19.59,0,0,1,1.84-2.45q-7.93-.69-15.52-1.52a38.47,38.47,0,0,0-3.1,7.88,55.85,55.85,0,0,0-2,14.9,57.7,57.7,0,0,0,1.93,15.1,36.72,36.72,0,0,0,6,12.67,29.29,29.29,0,0,0,10.49,8.72,33.74,33.74,0,0,0,15.3,3.21A35.42,35.42,0,0,0,118.89,164a28.71,28.71,0,0,0,11-8.61,35.88,35.88,0,0,0,6.24-12.53A61.28,61.28,0,0,0,138.2,127a51.57,51.57,0,0,0-1.94-14.85,41,41,0,0,0-1.4-4.09q-8.16-.16-16.06-.52C119,107.86,119.2,108.13,119.39,108.43Z"/><path class="cls-1" d="M182.63,111.8q0,5.94-3.27,8.66c-2.18,1.82-5.25,2.72-9.21,2.72h-6.63V108q-6.79.17-13.47.19V163c0,.92.17,1.5.5,1.73a2.59,2.59,0,0,0,1.48.35h9.61a2.32,2.32,0,0,0,1.48-.35c.27-.23.4-.81.4-1.73V135.26h9.11l14.05,28.22a3.5,3.5,0,0,0,.85,1.33,3,3,0,0,0,1.53.25H200q1.49,0,1.68-.54c.13-.37-.06-1-.59-2L185,131.9a22.38,22.38,0,0,0,8.12-7.88,22.78,22.78,0,0,0,3.07-12.12,33.94,33.94,0,0,0-.43-5.51q-6.91.54-13.74.91A15.31,15.31,0,0,1,182.63,111.8Z"/><path class="cls-1" d="M217.47,163.08a2.13,2.13,0,0,0,.44,1.58,2.3,2.3,0,0,0,1.54.4H229a2.3,2.3,0,0,0,1.54-.4,2.13,2.13,0,0,0,.44-1.58V102.55q-6.77.95-13.46,1.73Z"/><path class="cls-1" d="M299.31,101.57a31,31,0,0,0-10.39-8.75q-20.62,5.36-41,8.88a37.12,37.12,0,0,0-6,12.44,55.85,55.85,0,0,0-2,14.9,57.7,57.7,0,0,0,1.93,15.1,36.9,36.9,0,0,0,6,12.67,29.46,29.46,0,0,0,10.49,8.72,33.74,33.74,0,0,0,15.3,3.21A35.42,35.42,0,0,0,288.12,166a28.64,28.64,0,0,0,11-8.61,35.71,35.71,0,0,0,6.24-12.53A61.28,61.28,0,0,0,307.43,129a51.92,51.92,0,0,0-1.93-14.85A38,38,0,0,0,299.31,101.57ZM292.13,139a29.22,29.22,0,0,1-3.51,8.81,19.33,19.33,0,0,1-6.09,6.24,17.5,17.5,0,0,1-17.62,0,19.68,19.68,0,0,1-6.14-6.24,28,28,0,0,1-3.56-8.76,44.83,44.83,0,0,1,0-20.09,28.21,28.21,0,0,1,3.56-8.77,19.28,19.28,0,0,1,6.14-6.18,16.35,16.35,0,0,1,8.86-2.33,15.57,15.57,0,0,1,8.81,2.43,20,20,0,0,1,6,6.28,29.44,29.44,0,0,1,3.51,8.76,43.42,43.42,0,0,1,1.14,9.85A44.4,44.4,0,0,1,292.13,139Z"/><path class="cls-1" d="M183,29.31a2.42,2.42,0,0,0,.1-1.78c-.2-.33-.76-.5-1.68-.5h-9.51a3.75,3.75,0,0,0-1.48.2c-.27.13-.46.49-.6,1.09L154.26,82.57l-14.75-54q-.3-1.1-.84-1.29A5.18,5.18,0,0,0,137,27h-9.6a4.6,4.6,0,0,0-1.58.2c-.33.13-.6.56-.79,1.29L110.21,82.57,94.66,28.12c-.13-.53-.36-.84-.69-.94A5.52,5.52,0,0,0,92.48,27H83c-1,0-1.57.15-1.73.45a2.77,2.77,0,0,0,.15,1.83l19.08,66c5,1,10.78,2,17.11,3l14.69-51.44,14.4,54.54c4.64.3,9.42.53,14.35.64.05-.13.11-.27.16-.43Z"/><path class="cls-1" d="M232.39,91.48c-.16-.33-.78-.5-1.83-.5H204.62V70.59h23.66c.93,0,1.5-.15,1.73-.45a3.15,3.15,0,0,0,.35-1.83V60.59a4.77,4.77,0,0,0-.25-1.78c-.16-.4-.77-.59-1.83-.59H204.62V39.41h24.95c1,0,1.58-.15,1.78-.45a3.7,3.7,0,0,0,.3-1.83V29.41a6.1,6.1,0,0,0-.2-1.79c-.13-.39-.76-.59-1.88-.59H194.33c-1.52,0-2.43.2-2.73.59a5.84,5.84,0,0,0-.44,2.88V99.7a15.17,15.17,0,0,0,.07,1.63,279.38,279.38,0,0,0,41.41-6V93.26A4.48,4.48,0,0,0,232.39,91.48Z"/><path class="cls-1" d="M258.2,69.2h3a30.38,30.38,0,0,1,7.77.85,13.26,13.26,0,0,1,4.95,2.32,8,8,0,0,1,2.57,3.52,12.59,12.59,0,0,1,.75,4.4q0,.46,0,.9,6.39-2.81,12.69-6.09a.83.83,0,0,0,0-.15,17.48,17.48,0,0,0-2.48-4.71,20,20,0,0,0-4-4,20.43,20.43,0,0,0-5.3-2.87,19.35,19.35,0,0,0,4.45-2.92,18.66,18.66,0,0,0,3.37-3.86A18.17,18.17,0,0,0,288.05,52a16.83,16.83,0,0,0,.74-4.9,21.29,21.29,0,0,0-1.73-8.86,16.59,16.59,0,0,0-4.9-6.29,21.56,21.56,0,0,0-7.68-3.71,37.66,37.66,0,0,0-10-1.24H246.81c-.92,0-1.47.18-1.63.54a4.26,4.26,0,0,0-.25,1.64V92.57q6.63-1.81,13.27-4ZM258.4,39h6a15.52,15.52,0,0,1,5.14.74,9.3,9.3,0,0,1,3.32,1.93,6.37,6.37,0,0,1,1.73,2.82,11.74,11.74,0,0,1,.5,3.42,12.82,12.82,0,0,1-.6,4,7.7,7.7,0,0,1-2,3.22,9.74,9.74,0,0,1-3.81,2.17,18.91,18.91,0,0,1-5.94.8H258.4Z"/><path class="cls-1" d="M82.66,69c0-.17.86,2.77-19.76-64.82A2.42,2.42,0,0,0,59.14,2.9L37.06,19.29l-9-18a2.42,2.42,0,0,0-4.58,1.09V29L1.55,37.48a2.43,2.43,0,0,0,0,4.53L79.43,71.74A2.42,2.42,0,0,0,82.66,69ZM9.18,39.73l16.33-6.3,37.93,27ZM28.27,12.62c6.3,12.49,5.79,11.52,6,11.77S32.89,23,61.34,53L28.27,29.45ZM75,60.34,39.83,23.26,59.27,8.84Z"/></g></g></svg>